<?xml version="1.0" standalone="no"?>
<!DOCTYPE svg PUBLIC "-//W3C//DTD SVG 20010904//EN"
 "http://www.w3.org/TR/2001/REC-SVG-20010904/DTD/svg10.dtd">
<svg version="1.0" xmlns="http://www.w3.org/2000/svg"
 width="1120.000000pt" height="1120.000000pt" viewBox="0 0 1120.000000 1120.000000"
 preserveAspectRatio="xMidYMid meet">
<metadata>
Created by potrace 1.11, written by Peter Selinger 2001-2013
</metadata>
<g transform="translate(0.000000,1120.000000) scale(0.100000,-0.100000)"
fill="#000000" stroke="none">
<path d="M5343 11161 c-35 -35 -50 -61 -79 -136 -4 -11 -9 -24 -10 -30 -1 -5
-2 -410 -3 -898 l-1 -888 -77 55 c-175 124 -380 236 -568 310 -141 56 -148 59
-160 61 -5 0 -17 4 -25 7 -22 9 -131 41 -155 45 -11 1 -41 8 -66 14 -26 6 -53
12 -60 13 -8 2 -25 6 -39 9 -14 3 -45 9 -70 12 -25 2 -70 8 -100 12 -30 3 -88
7 -127 7 -40 1 -73 3 -73 6 0 8 -124 5 -137 -3 -7 -5 -13 -4 -13 1 0 5 -12 8
-27 6 -16 -2 -66 -6 -113 -9 -47 -2 -96 -7 -110 -10 -14 -3 -43 -7 -65 -10
-22 -3 -51 -7 -65 -10 -14 -2 -36 -7 -50 -10 -14 -2 -36 -6 -50 -9 -38 -6
-210 -55 -253 -71 -20 -8 -39 -14 -42 -14 -26 4 -355 -147 -462 -211 -36 -22
-67 -40 -69 -40 -2 0 -33 -20 -70 -45 -36 -25 -67 -45 -70 -45 -5 0 -39 -28
-66 -52 -10 -10 -21 -18 -26 -18 -4 0 -21 -13 -38 -28 -18 -15 -45 -37 -60
-50 -123 -96 -323 -296 -419 -417 -22 -27 -42 -52 -45 -55 -12 -11 -108 -147
-120 -170 -7 -14 -19 -29 -26 -33 -8 -4 -14 -13 -14 -18 0 -6 -13 -30 -30 -54
-16 -24 -30 -48 -30 -53 0 -6 -3 -12 -7 -14 -9 -4 -26 -34 -110 -196 -34 -68
-63 -130 -63 -137 0 -7 -4 -15 -8 -17 -10 -4 -144 -351 -156 -403 -2 -5 -8
-30 -15 -55 -7 -25 -15 -52 -17 -60 -2 -8 -10 -42 -19 -75 -18 -71 -24 -97
-40 -167 -23 -104 -25 -189 -25 -808 l1 -675 25 -110 c13 -60 26 -119 29 -130
4 -17 19 -79 29 -120 2 -5 5 -17 8 -25 3 -8 11 -35 18 -60 15 -57 106 -311
133 -370 11 -25 19 -46 19 -47 -1 -1 24 -52 54 -112 29 -61 54 -115 54 -121 0
-5 5 -10 10 -10 6 0 10 -5 10 -11 0 -6 9 -24 21 -40 11 -16 17 -29 13 -29 -4
0 0 -8 8 -17 8 -10 43 -63 77 -118 82 -133 84 -136 98 -154 7 -9 26 -34 42
-56 94 -124 156 -196 278 -322 59 -61 207 -214 328 -339 121 -125 254 -262
295 -305 41 -42 165 -170 275 -284 110 -114 236 -244 280 -290 73 -74 388
-400 590 -610 44 -45 177 -183 295 -305 234 -242 389 -403 406 -422 6 -7 20
-20 30 -29 11 -9 96 -96 189 -194 94 -98 215 -224 270 -280 55 -57 174 -180
265 -275 282 -294 408 -418 432 -425 13 -4 25 -11 28 -16 9 -14 62 -22 161
-25 88 -3 101 -1 155 25 66 32 122 85 154 148 19 37 74 98 290 323 30 32 138
144 240 250 102 106 231 240 288 298 56 57 102 106 102 107 0 1 51 54 113 118
61 63 189 195 282 293 94 97 200 208 236 245 37 37 76 80 88 95 11 15 21 24
21 21 0 -3 21 17 48 45 26 29 93 99 149 158 56 58 137 142 180 186 43 45 161
168 263 274 102 106 214 223 250 260 184 192 415 432 490 510 47 49 164 170
260 271 96 100 203 211 237 246 76 77 170 191 246 298 31 44 61 85 67 92 5 7
10 17 10 23 0 5 5 10 10 10 6 0 10 7 10 15 0 8 5 15 10 15 6 0 10 4 10 9 0 5
22 45 49 88 26 43 52 89 56 103 4 13 14 30 21 38 8 7 14 20 14 28 0 8 5 14 10
14 6 0 10 6 10 13 0 6 15 41 33 77 45 88 169 399 182 455 6 31 19 71 24 80 3
6 6 15 7 21 1 6 10 38 19 70 9 33 19 70 21 84 3 14 9 39 14 55 5 17 11 44 14
60 2 17 9 55 15 85 26 138 49 308 46 338 -1 12 1 22 4 22 20 0 18 582 -3 750
-3 19 -7 60 -10 90 -3 30 -8 66 -11 80 -2 13 -7 42 -11 65 -3 22 -17 94 -31
160 -30 146 -30 142 -42 183 -5 18 -10 33 -10 35 0 1 -2 9 -4 17 -3 8 -10 35
-17 60 -7 25 -15 52 -18 60 -3 8 -6 20 -8 25 -4 16 -50 144 -77 215 -36 95
-99 234 -146 323 -22 42 -38 77 -33 77 4 0 2 4 -4 8 -6 4 -21 25 -33 47 -12
22 -30 54 -41 70 -11 17 -23 37 -27 45 -11 25 -66 105 -75 108 -4 2 -8 9 -8
16 0 7 -11 25 -25 40 -13 14 -21 26 -17 26 4 0 2 4 -3 8 -6 4 -28 32 -50 62
-22 30 -44 60 -50 66 -5 6 -21 25 -35 43 -88 114 -326 351 -445 442 -16 13
-37 31 -46 41 -9 10 -19 15 -23 11 -3 -3 -6 -1 -6 5 0 7 -7 12 -15 12 -8 0
-15 4 -15 9 0 7 -76 62 -132 96 -9 5 -54 33 -100 61 -143 87 -475 237 -525
237 -7 0 -13 3 -13 7 0 4 -6 7 -12 7 -7 1 -65 15 -128 31 -63 17 -132 33 -154
37 -21 3 -41 7 -45 9 -3 2 -28 6 -56 10 -27 3 -66 8 -85 11 -19 3 -65 7 -102
9 -37 2 -71 7 -77 10 -5 4 -12 2 -16 -4 -4 -6 -12 -7 -18 -3 -13 8 -207 11
-207 3 0 -3 -28 -5 -63 -6 -83 -1 -211 -15 -277 -30 -14 -3 -38 -8 -55 -11
-16 -2 -57 -11 -89 -19 -33 -9 -68 -16 -78 -17 -10 -1 -18 -5 -18 -9 0 -4 -3
-7 -7 -6 -20 4 -221 -63 -318 -107 -27 -12 -75 -33 -105 -46 -30 -12 -57 -25
-60 -28 -3 -4 -42 -25 -88 -49 -46 -23 -122 -68 -169 -98 -47 -30 -88 -53 -91
-50 -3 3 -6 390 -7 858 -2 964 2 911 -80 1006 l-47 52 -188 0 -188 0 -39 -39z
m2234 -2025 c44 -4 90 -9 104 -11 13 -3 41 -7 63 -10 21 -3 41 -7 45 -9 3 -2
24 -7 45 -10 22 -4 59 -13 82 -21 24 -8 53 -17 66 -19 46 -10 276 -102 288
-115 3 -3 28 -17 55 -31 60 -29 209 -121 213 -132 2 -5 10 -8 18 -8 8 0 14 -4
14 -10 0 -5 6 -10 13 -10 7 0 19 -9 27 -20 8 -11 18 -20 23 -20 24 0 377 -336
377 -359 0 -5 3 -11 8 -13 4 -1 25 -25 47 -53 22 -27 42 -52 45 -55 20 -19
200 -302 200 -314 0 -3 15 -31 34 -63 19 -33 38 -71 41 -86 4 -15 11 -27 16
-27 5 0 9 -9 9 -20 0 -11 4 -20 8 -20 5 0 9 -6 9 -12 1 -7 15 -45 32 -85 53
-126 134 -381 125 -394 -3 -5 -1 -9 3 -9 5 0 9 -8 10 -17 0 -10 12 -75 26
-144 14 -70 29 -153 33 -185 3 -33 8 -68 10 -78 4 -22 16 -201 18 -283 1 -31
-2 -53 -9 -53 -7 0 -7 -3 0 -8 10 -7 15 -132 5 -132 -3 0 -6 -37 -7 -83 -2
-100 -9 -185 -24 -274 -6 -38 -13 -84 -15 -103 -3 -19 -7 -43 -10 -52 -3 -9
-6 -25 -8 -35 -11 -58 -22 -111 -26 -115 -2 -3 -5 -16 -13 -53 -13 -54 -39
-142 -47 -157 -6 -10 -10 -25 -10 -33 0 -8 -4 -23 -9 -33 -6 -9 -22 -51 -37
-92 -15 -41 -31 -80 -35 -86 -5 -6 -6 -14 -2 -17 3 -4 1 -7 -5 -7 -7 0 -11 -3
-10 -7 1 -5 -5 -24 -14 -43 -56 -120 -66 -139 -93 -180 -5 -8 -10 -20 -11 -27
-1 -7 -12 -26 -23 -42 -12 -16 -21 -32 -21 -36 0 -3 -13 -26 -30 -50 -16 -24
-30 -46 -30 -49 0 -6 -24 -36 -48 -62 -10 -10 -306 281 -1631 1606 l-1619
1619 1 272 0 271 81 82 c93 92 154 148 212 191 21 16 41 33 42 37 2 5 8 6 13
2 5 -3 9 -1 9 4 0 6 24 25 53 43 28 19 54 37 55 41 2 5 10 8 17 8 7 0 15 3 17
8 6 14 255 140 323 163 22 8 43 18 46 22 3 5 10 8 15 8 5 -1 38 7 74 18 83 24
183 49 235 57 22 3 42 7 45 9 3 2 50 6 105 10 55 4 101 8 102 9 4 3 153 -2
230 -8z m-3707 -20 c14 -2 41 -7 60 -10 81 -12 234 -46 280 -64 8 -3 18 -4 23
-4 4 1 7 -3 7 -9 0 -5 4 -8 9 -5 5 3 51 -12 102 -33 157 -65 245 -110 348
-179 35 -23 66 -42 68 -42 20 0 241 -189 350 -299 l133 -133 0 -233 0 -232
-161 -154 c-89 -85 -198 -190 -244 -234 -46 -44 -157 -150 -246 -235 -89 -85
-194 -186 -234 -225 -71 -68 -350 -336 -464 -444 -31 -29 -137 -131 -236 -226
-99 -94 -227 -217 -284 -271 -57 -54 -131 -126 -166 -159 -34 -33 -85 -81
-113 -107 -28 -27 -49 -48 -46 -48 3 0 -9 -12 -27 -27 -18 -16 -60 -54 -93
-85 -33 -32 -64 -58 -68 -58 -4 0 -8 -6 -8 -14 0 -8 -4 -16 -10 -18 -8 -3
-181 -165 -365 -343 -29 -27 -132 -126 -230 -220 -97 -93 -221 -212 -274 -263
l-96 -92 -19 22 c-50 61 -189 327 -259 493 -26 62 -96 258 -102 285 -1 8 -9
35 -16 60 -15 55 -16 59 -22 90 -3 14 -6 25 -7 25 -1 0 -3 9 -5 20 -4 24 -17
86 -21 100 -8 34 -35 199 -40 245 -3 30 -8 69 -10 85 -12 77 -11 517 1 630 14
123 24 205 31 240 3 11 7 36 10 55 3 19 15 73 26 120 11 47 21 94 24 106 7 39
86 279 100 306 8 15 16 35 18 45 6 34 109 249 176 367 37 67 132 211 141 214
5 2 9 10 9 17 0 7 3 15 8 17 4 2 21 21 37 44 88 120 291 331 415 431 164 132
445 296 565 328 6 2 28 11 50 20 22 9 50 19 63 21 13 3 42 11 65 18 36 12 146
37 162 37 2 0 19 5 37 10 18 5 71 11 117 14 46 3 86 7 88 9 5 5 309 -2 343 -8z
m1396 -3353 l0 -1228 -22 -20 c-12 -11 -63 -58 -114 -105 -51 -47 -109 -101
-130 -120 -21 -19 -77 -71 -126 -115 -48 -44 -99 -91 -114 -105 -15 -14 -66
-61 -115 -105 -48 -44 -102 -93 -120 -110 -17 -16 -71 -66 -119 -110 -49 -44
-110 -100 -137 -125 -26 -25 -83 -76 -125 -115 -42 -38 -91 -83 -109 -100 -17
-16 -76 -70 -130 -120 -54 -49 -113 -103 -131 -120 -18 -16 -67 -61 -109 -100
-43 -38 -93 -85 -112 -103 l-34 -33 -100 103 c-56 57 -199 204 -320 328 -121
124 -287 295 -370 380 -83 85 -211 216 -285 291 -130 133 -133 136 -115 155
10 10 96 93 191 184 95 91 203 194 240 230 127 123 412 395 486 465 41 39 132
125 201 193 70 67 128 122 129 122 1 0 40 37 86 83 76 73 375 360 498 477 26
25 129 124 230 220 100 96 208 200 240 230 32 30 135 129 230 220 95 91 223
213 284 272 61 59 113 108 116 108 3 0 5 -552 6 -1227z m992 878 c180 -181
806 -811 1392 -1400 586 -589 1066 -1078 1068 -1086 2 -7 -23 -40 -55 -73 -32
-32 -141 -145 -243 -251 -102 -107 -216 -226 -255 -266 -38 -40 -153 -159
-255 -265 -102 -106 -227 -236 -278 -289 l-93 -96 -811 811 -811 811 1 1199
c1 1328 0 1234 8 1234 3 0 152 -148 332 -329z m-992 -4246 c0 -696 -3 -1265
-7 -1265 -3 0 -72 69 -153 154 -81 84 -195 203 -254 264 -59 60 -190 196 -292
302 -102 106 -219 227 -260 270 -213 219 -330 342 -330 349 0 4 32 36 72 72
39 35 90 82 114 104 105 99 145 135 148 135 2 0 24 19 48 43 39 37 105 97 285
262 25 22 67 61 94 88 26 26 51 47 54 47 2 0 24 19 48 43 40 38 108 101 271
249 32 29 81 74 110 101 28 26 51 47 51 47 0 0 0 -569 1 -1265z m1230 655
c324 -325 591 -592 593 -595 2 -2 -26 -35 -62 -72 -109 -113 -274 -284 -432
-449 -82 -86 -192 -199 -242 -251 -51 -52 -93 -96 -93 -97 0 -1 -48 -52 -107
-113 -60 -60 -129 -132 -154 -159 -25 -27 -57 -59 -71 -72 l-25 -23 0 1210 c0
666 1 1211 2 1211 1 0 267 -266 591 -590z"/>
</g>
</svg>
